<?xml version="1.0" encoding="UTF-8"?>
<svg id="Layer_2" data-name="Layer 2" xmlns="http://www.w3.org/2000/svg" viewBox="0 0 279.19 121.91">
  <defs>
    <style>
      .cls-1 {
        fill: #808285;
      }

      .cls-1, .cls-2, .cls-3, .cls-4 {
        stroke-width: 0px;
      }

      .cls-3 {
        fill: #4338ca;
      }

      .cls-4 {
        fill: #6366f1;
      }
    </style>
  </defs>
  <g id="Layer_1-2" data-name="Layer 1">
    <g>
      <g>
        <path class="cls-4" d="m57.42,60.89c3.51,0,7.03-.01,10.54,0,3.78.01,4.78.71,6.11,4.17,5.61,14.58-1.5,31.8-16.09,39.12-3.3,1.65-6.74,2.94-10.36,3.49-1.92.3-2.23,1.14-2.15,2.77.08,1.79.14,3.61-.12,5.38-.67,4.59-3.91,6.53-9.68,6.01-4.54-.41-6.54-2.57-6.59-7.12-.03-2.1.63-4.66-.33-6.18-1-1.58-3.85-1.09-5.86-1.63-6.53-1.75-12.64-4.41-18.21-8.25-4.5-3.1-5.25-6.63-2.35-11.21,1.63-2.57,3.34-5.09,5.16-7.52,2.85-3.81,5.96-4.52,10.23-2.24,3.57,1.91,7.06,4,10.96,5.19,4.44,1.36,8.95,2.18,13.58,1.07,2.41-.58,4.53-1.65,5.94-3.82,1.85-2.84,1.5-6.19-1.02-8.44-1.1-.98-2.39-1.74-3.61-2.58-1.85-1.27-2.45-3.02-1.8-5.1.62-1.98,2.03-3.09,4.18-3.09,3.83,0,7.65,0,11.48,0,0,0,0-.01,0-.02Z"/>
        <path class="cls-3" d="m18.18,61.08c-3.43,0-6.87-.08-10.3.02-2.77.08-4.46-1.07-5.58-3.64-5.84-13.48-.27-29.88,12.98-37.95,3.76-2.29,7.8-3.91,12.09-4.81,1.4-.29,1.8-.88,1.72-2.18-.08-1.32-.03-2.65-.01-3.98.04-3.33,1.47-5.91,4.43-7.41,3.21-1.63,6.5-1.47,9.6.37,1.67.99,2.29,2.71,2.35,4.59.06,1.87.14,3.75,0,5.62-.12,1.67.42,2.27,2.15,2.49,6.8.84,13.19,3.02,19.07,6.56,4.54,2.74,5.63,6.06,3.45,10.9-1.28,2.84-2.72,5.61-4.26,8.31-2.29,4.02-5.41,5.02-9.7,2.98-4.01-1.91-7.97-3.89-12.4-4.7-3.64-.67-7.26-.94-10.86.24-2.05.68-3.84,1.73-5.1,3.53-1.92,2.76-1.56,6.19.94,8.45.92.83,1.99,1.49,3.03,2.19,1.87,1.25,2.87,2.88,2.18,5.16-.67,2.21-2.2,3.28-4.54,3.26-3.75-.03-7.49,0-11.24,0h0Z"/>
      </g>
      <g>
        <path class="cls-2" d="m121.35,55.16v-10.45c0-2.79-.55-5.17-1.65-7.15-1.1-1.98-2.7-3.48-4.79-4.51-2.1-1.03-4.62-1.55-7.58-1.55h-11.69v36.87h11.67c2.96,0,5.49-.52,7.6-1.55,2.1-1.03,3.71-2.54,4.81-4.51,1.1-1.98,1.65-4.36,1.65-7.15Zm-5.3.2c0,2.57-.75,4.56-2.24,5.97-1.5,1.41-3.61,2.12-6.33,2.12h-6.67v-27.03h6.67c2.72,0,4.83.71,6.33,2.12,1.5,1.41,2.24,3.4,2.24,5.97v10.85Z"/>
        <path class="cls-2" d="m152.25,62.3c1.07-2.05,1.61-4.43,1.61-7.14v-10.45c0-2.7-.54-5.08-1.61-7.14-1.07-2.05-2.59-3.64-4.55-4.77-1.96-1.12-4.23-1.69-6.8-1.69s-4.83.56-6.8,1.69c-1.96,1.12-3.48,2.71-4.55,4.77s-1.61,4.43-1.61,7.14v10.45c0,2.71.54,5.08,1.61,7.14s2.59,3.64,4.55,4.77c1.96,1.12,4.23,1.69,6.8,1.69s4.84-.56,6.8-1.69c1.96-1.12,3.48-2.71,4.55-4.77Zm-7.33.33c-1.16.68-2.5,1.03-4.02,1.03s-2.86-.34-4.02-1.03-2.05-1.66-2.69-2.92c-.63-1.26-.95-2.72-.95-4.37v-10.8c0-1.66.32-3.12.95-4.38.63-1.26,1.53-2.23,2.69-2.92,1.16-.69,2.5-1.03,4.02-1.03s2.86.34,4.02,1.03c1.16.68,2.05,1.66,2.69,2.92.63,1.26.95,2.72.95,4.38v10.8c0,1.66-.32,3.12-.95,4.37-.63,1.26-1.53,2.23-2.69,2.92Z"/>
        <polygon class="cls-2" points="185.41 63.46 166.9 63.46 166.9 31.5 161.72 31.5 161.72 68.38 164.31 68.38 166.9 68.38 185.41 68.38 185.41 63.46"/>
        <polygon class="cls-2" points="215.18 63.46 196.67 63.46 196.67 31.5 191.49 31.5 191.49 68.38 194.08 68.38 196.67 68.38 215.18 68.38 215.18 63.46"/>
        <polygon class="cls-2" points="244.95 63.46 226.44 63.46 226.44 52.53 242.17 52.53 242.17 47.61 226.44 47.61 226.44 36.42 244.95 36.42 244.95 31.5 226.44 31.5 223.78 31.5 221.27 31.5 221.27 68.38 223.78 68.38 226.44 68.38 244.95 68.38 244.95 63.46"/>
        <path class="cls-2" d="m265.19,52.78l7.87,15.6h6.14l-8.51-16.16c.65-.2,1.27-.44,1.86-.76,1.61-.88,2.87-2.13,3.77-3.74.9-1.61,1.34-3.48,1.34-5.59s-.44-3.98-1.33-5.59c-.89-1.61-2.14-2.86-3.75-3.74-1.62-.88-3.49-1.32-5.62-1.32h-14.63v36.9h5.17v-15.6h7.7Zm1.96-16.38c1,0,1.87.24,2.62.71.75.47,1.34,1.15,1.75,2.02.41.87.62,1.87.62,3.01s-.21,2.13-.62,3c-.41.87-1,1.54-1.76,2.02s-1.63.71-2.61.71h-9.66v-11.46h9.66Z"/>
        <polygon class="cls-1" points="90.71 83.94 98.13 83.94 98.13 106.7 101.82 106.7 101.82 83.94 109.24 83.94 109.24 80.44 90.71 80.44 90.71 83.94"/>
        <path class="cls-1" d="m132.44,94.65c1.15-.63,2.04-1.51,2.68-2.66s.96-2.48.96-3.98-.32-2.83-.95-3.98c-.63-1.15-1.52-2.04-2.67-2.66-1.15-.63-2.48-.94-4-.94h-10.42v26.29h3.69v-11.11h5.49l5.61,11.11h4.37l-6.06-11.51c.46-.14.91-.32,1.32-.54Zm-10.72-10.73h6.88c.71,0,1.33.17,1.87.51.54.34.95.82,1.25,1.44.29.62.44,1.33.44,2.14s-.15,1.52-.44,2.14-.71,1.1-1.26,1.44c-.54.34-1.16.51-1.86.51h-6.88v-8.17Z"/>
        <path class="cls-1" d="m153.58,80.44l-9.68,26.27h3.97l1.98-5.76h10.6l1.98,5.76h3.97l-9.68-26.27h-3.14Zm-2.53,17l4.1-11.92,4.1,11.92h-8.19Z"/>
        <path class="cls-1" d="m178.02,86.71c.45-.93,1.07-1.66,1.88-2.18.81-.52,1.75-.78,2.82-.78.77,0,1.52.17,2.24.52.72.35,1.35.85,1.89,1.49.54.64.92,1.38,1.15,2.2h3.78c-.3-1.55-.88-2.92-1.73-4.1-.85-1.18-1.91-2.09-3.17-2.74-1.26-.64-2.65-.97-4.16-.97-1.82,0-3.42.41-4.8,1.22-1.38.81-2.45,1.96-3.21,3.44-.76,1.48-1.14,3.2-1.14,5.15v7.21c0,1.95.38,3.67,1.14,5.15s1.83,2.63,3.21,3.43c1.38.81,2.98,1.21,4.8,1.21,1.49,0,2.87-.32,4.14-.97s2.32-1.56,3.18-2.74c.85-1.18,1.43-2.55,1.73-4.1h-3.78c-.23.88-.61,1.64-1.15,2.28-.54.64-1.16,1.12-1.88,1.45-.72.33-1.47.49-2.25.49-1.07,0-2.01-.26-2.82-.77s-1.43-1.24-1.88-2.18-.67-2.02-.67-3.25v-7.21c0-1.24.22-2.33.67-3.26Z"/>
        <polygon class="cls-1" points="220.85 80.44 216.32 80.44 205.52 94.17 205.52 80.44 201.83 80.44 201.83 106.7 205.52 106.7 205.52 99.08 209.8 93.87 217.44 106.7 221.96 106.7 212.42 90.69 220.85 80.44"/>
        <polygon class="cls-1" points="232.9 80.44 231.11 80.44 231.11 106.7 232.9 106.7 234.8 106.7 247.98 106.7 247.98 103.2 234.8 103.2 234.8 95.41 246 95.41 246 91.91 234.8 91.91 234.8 83.94 247.98 83.94 247.98 80.44 234.8 80.44 232.9 80.44"/>
        <path class="cls-1" d="m272.81,94.65c1.15-.63,2.04-1.51,2.68-2.66s.96-2.48.96-3.98-.32-2.83-.95-3.98c-.63-1.15-1.52-2.04-2.67-2.66-1.15-.63-2.48-.94-4-.94h-10.42v26.29h3.69v-11.11h5.49l5.61,11.11h4.37l-6.06-11.51c.46-.14.91-.32,1.32-.54Zm-10.72-10.73h6.88c.71,0,1.33.17,1.87.51.54.34.95.82,1.25,1.44.29.62.44,1.33.44,2.14s-.15,1.52-.44,2.14c-.3.62-.71,1.1-1.26,1.44-.54.34-1.16.51-1.86.51h-6.88v-8.17Z"/>
      </g>
    </g>
  </g>
</svg>