<?xml version="1.0" encoding="UTF-8"?>
<svg id="Layer_2" data-name="Layer 2" xmlns="http://www.w3.org/2000/svg" viewBox="0 0 206.23 206.23">
  <defs>
    <style>
      .cls-1 {
        fill: none;
        stroke: #c7c8ca;
        stroke-linecap: round;
        stroke-linejoin: round;
        stroke-width: 6px;
      }
    </style>
  </defs>
  <g id="Layer_2-2" data-name="Layer 2">
    <g>
      <line class="cls-1" x1="27.39" y1="22.97" x2="185.21" y2="180.79"/>
      <g>
        <path class="cls-1" d="m128.38,141.01c-7.23,4.83-15.92,7.65-25.26,7.65-25.15,0-45.54-20.39-45.54-45.54,0-9.35,2.82-18.03,7.65-25.26"/>
        <path class="cls-1" d="m34.88,47.51c-12.37,15.16-19.79,34.52-19.79,55.61,0,48.62,39.41,88.03,88.03,88.03,21.09,0,40.45-7.42,55.61-19.79"/>
      </g>
      <line class="cls-1" x1="103.12" y1="3" x2="103.12" y2="27.72"/>
      <line class="cls-1" x1="103.12" y1="178.52" x2="103.12" y2="203.23"/>
      <line class="cls-1" x1="27.72" y1="103.12" x2="3" y2="103.12"/>
      <line class="cls-1" x1="203.23" y1="103.12" x2="178.52" y2="103.12"/>
      <path class="cls-1" d="m43.45,38.39c15.69-14.47,36.64-23.3,59.66-23.3,48.62,0,88.03,39.41,88.03,88.03,0,23.19-8.97,44.28-23.62,60.01"/>
      <path class="cls-1" d="m73.2,68.78c8-6.98,18.47-11.21,29.92-11.21,25.15,0,45.54,20.39,45.54,45.54,0,11.45-4.23,21.92-11.21,29.92"/>
    </g>
  </g>
</svg>